<svg xmlns="http://www.w3.org/2000/svg" viewBox="0 0 64 64" width="64" height="64">
  <defs>
    <linearGradient id="slashBlade" x1="0%" y1="100%" x2="100%" y2="0%">
      <stop offset="0%" stop-color="#BFE0FF" stop-opacity="0"/>
      <stop offset="35%" stop-color="#EAF6FF" stop-opacity="0.85"/>
      <stop offset="55%" stop-color="#FFFFFF"/>
      <stop offset="75%" stop-color="#EAF6FF" stop-opacity="0.85"/>
      <stop offset="100%" stop-color="#BFE0FF" stop-opacity="0"/>
    </linearGradient>
    <linearGradient id="slashEcho" x1="0%" y1="100%" x2="100%" y2="0%">
      <stop offset="0%" stop-color="#7FC4FF" stop-opacity="0"/>
      <stop offset="50%" stop-color="#9FD4FF" stop-opacity="0.5"/>
      <stop offset="100%" stop-color="#7FC4FF" stop-opacity="0"/>
    </linearGradient>
    <radialGradient id="slashFlash" cx="50%" cy="50%" r="50%">
      <stop offset="0%" stop-color="#FFFFFF" stop-opacity="0.95"/>
      <stop offset="45%" stop-color="#CFE8FF" stop-opacity="0.4"/>
      <stop offset="100%" stop-color="#CFE8FF" stop-opacity="0"/>
    </radialGradient>
  </defs>

  <circle cx="46" cy="16" r="22" fill="url(#slashFlash)"/>

  <path d="M4,50 C10,36 24,18 44,6 C42,14 46,20 54,22 C40,34 22,50 8,60 C5,57 4,53 4,50 Z" fill="url(#slashEcho)"/>

  <path d="M8,54 C14,40 28,22 48,8 C47,16 51,21 58,23 C44,36 26,52 12,62 C9,60 8,57 8,54 Z" fill="url(#slashBlade)"/>

  <path d="M11,55 C20,42 34,26 53,11" fill="none" stroke="#FFFFFF" stroke-width="2" stroke-linecap="round" opacity="0.95"/>

  <circle cx="55" cy="10" r="1.6" fill="#FFFFFF" opacity="0.9"/>
  <circle cx="50" cy="6" r="1.1" fill="#CFE8FF" opacity="0.8"/>
  <circle cx="60" cy="18" r="1.3" fill="#EAF6FF" opacity="0.75"/>
  <circle cx="6" cy="52" r="1.2" fill="#9FD4FF" opacity="0.55"/>
</svg>
